# WaveFront *.obj file (generated by Autodesk ATF)

mtllib simpleBoard.mtl

g Body1

v 0.254000 0.254000 -0.019050
v -0.254000 0.254000 -0.019050
v -0.254000 0.254000 0.000000
v -0.190500 0.254000 0.000000
v -0.127000 0.254000 0.000000
v -0.063500 0.254000 0.000000
v 0.000000 0.254000 0.000000
v 0.063500 0.254000 0.000000
v 0.127000 0.254000 0.000000
v 0.190500 0.254000 0.000000
v 0.254000 0.254000 0.000000
v 0.190500 0.190500 0.000000
v 0.254000 0.190500 0.000000
v 0.190500 0.127000 0.000000
v 0.254000 0.127000 0.000000
v 0.190500 0.063500 0.000000
v 0.254000 0.063500 0.000000
v 0.190500 -0.254000 0.000000
v 0.190500 -0.190500 0.000000
v 0.127000 -0.190500 0.000000
v 0.127000 -0.254000 0.000000
v 0.190500 -0.000000 0.000000
v 0.254000 -0.000000 0.000000
v 0.190500 -0.127000 0.000000
v 0.127000 -0.127000 0.000000
v 0.190500 -0.063500 0.000000
v 0.254000 -0.063500 0.000000
v 0.127000 -0.063500 0.000000
v 0.127000 0.190500 0.000000
v 0.063500 -0.190500 0.000000
v 0.063500 -0.254000 0.000000
v 0.127000 0.127000 0.000000
v 0.063500 -0.127000 0.000000
v 0.127000 0.063500 0.000000
v 0.063500 -0.063500 0.000000
v 0.127000 -0.000000 0.000000
v 0.063500 -0.000000 0.000000
v 0.063500 0.190500 0.000000
v 0.063500 0.127000 0.000000
v 0.063500 0.063500 0.000000
v 0.000000 -0.190500 0.000000
v 0.000000 -0.254000 0.000000
v 0.000000 -0.127000 0.000000
v 0.000000 -0.063500 0.000000
v -0.063500 -0.190500 0.000000
v -0.063500 -0.254000 0.000000
v -0.063500 -0.127000 0.000000
v -0.063500 -0.063500 0.000000
v 0.000000 -0.000000 0.000000
v -0.063500 -0.000000 0.000000
v 0.000000 0.063500 0.000000
v -0.063500 0.063500 0.000000
v 0.000000 0.127000 0.000000
v -0.063500 0.127000 0.000000
v 0.000000 0.190500 0.000000
v -0.063500 0.190500 0.000000
v -0.127000 0.127000 0.000000
v -0.127000 0.190500 0.000000
v -0.190500 0.190500 0.000000
v -0.190500 0.127000 0.000000
v -0.127000 -0.190500 0.000000
v -0.127000 -0.254000 0.000000
v -0.127000 -0.127000 0.000000
v -0.127000 -0.063500 0.000000
v -0.127000 -0.000000 0.000000
v -0.127000 -0.254000 -0.019050
v -0.254000 -0.254000 -0.019050
v 0.254000 -0.254000 -0.019050
v -0.190500 -0.254000 0.000000
v -0.254000 -0.254000 0.000000
v -0.190500 -0.190500 0.000000
v -0.190500 -0.127000 0.000000
v -0.190500 -0.063500 0.000000
v -0.190500 -0.000000 0.000000
v -0.127000 0.063500 0.000000
v -0.190500 0.063500 0.000000
v 0.254000 -0.127000 0.000000
v 0.254000 -0.190500 0.000000
v -0.254000 -0.190500 0.000000
v -0.254000 0.190500 0.000000
v -0.254000 0.127000 0.000000
v -0.254000 0.063500 0.000000
v -0.254000 -0.000000 0.000000
v -0.254000 -0.063500 0.000000
v -0.254000 -0.127000 0.000000
v 0.254000 -0.254000 0.000000
vt 0.000000 1.905000 0.000000
vt 25.400000 0.000000 0.000000
vt 50.800000 1.905000 0.000000
vt 31.750000 0.000000 0.000000
vt 38.100000 0.000000 0.000000
vt 0.000000 0.000000 0.000000
vt 6.350000 0.000000 0.000000
vt 12.700000 0.000000 0.000000
vt 19.050000 0.000000 0.000000
vt 44.450000 0.000000 0.000000
vt 50.800000 0.000000 0.000000
vt 19.050000 19.050000 0.000000
vt 25.400000 19.050000 0.000000
vt 19.050000 25.400000 0.000000
vt 25.400000 25.400000 0.000000
vt 19.050000 12.700000 0.000000
vt 25.400000 12.700000 0.000000
vt 19.050000 19.050000 0.000000
vt 25.400000 19.050000 0.000000
vt 19.050000 6.350000 0.000000
vt 25.400000 6.350000 0.000000
vt 19.050000 12.700000 0.000000
vt 25.400000 12.700000 0.000000
vt 19.050000 -19.050000 0.000000
vt 12.700000 -19.050000 0.000000
vt 19.050000 -25.400000 0.000000
vt 12.700000 -25.400000 0.000000
vt 19.050000 -0.000000 0.000000
vt 25.400000 -0.000000 0.000000
vt 19.050000 6.350000 0.000000
vt 25.400000 6.350000 0.000000
vt 19.050000 -12.700000 0.000000
vt 12.700000 -12.700000 0.000000
vt 19.050000 -19.050000 0.000000
vt 12.700000 -19.050000 0.000000
vt 19.050000 -6.350000 0.000000
vt 25.400000 -6.350000 0.000000
vt 19.050000 -0.000000 0.000000
vt 25.400000 -0.000000 0.000000
vt 12.700000 -6.350000 0.000000
vt 19.050000 -12.700000 0.000000
vt 12.700000 -12.700000 0.000000
vt 19.050000 25.400000 0.000000
vt 12.700000 25.400000 0.000000
vt 19.050000 19.050000 0.000000
vt 12.700000 19.050000 0.000000
vt 12.700000 -19.050000 0.000000
vt 6.350000 -19.050000 0.000000
vt 12.700000 -25.400000 0.000000
vt 6.350000 -25.400000 0.000000
vt 19.050000 19.050000 0.000000
vt 12.700000 19.050000 0.000000
vt 19.050000 12.700000 0.000000
vt 12.700000 12.700000 0.000000
vt 12.700000 -12.700000 0.000000
vt 6.350000 -12.700000 0.000000
vt 12.700000 -19.050000 0.000000
vt 6.350000 -19.050000 0.000000
vt 19.050000 12.700000 0.000000
vt 12.700000 12.700000 0.000000
vt 19.050000 6.350000 0.000000
vt 12.700000 6.350000 0.000000
vt 12.700000 -6.350000 0.000000
vt 6.350000 -6.350000 0.000000
vt 12.700000 -12.700000 0.000000
vt 6.350000 -12.700000 0.000000
vt 19.050000 6.350000 0.000000
vt 12.700000 6.350000 0.000000
vt 19.050000 -0.000000 0.000000
vt 12.700000 -0.000000 0.000000
vt 6.350000 -0.000000 0.000000
vt 12.700000 -6.350000 0.000000
vt 6.350000 -6.350000 0.000000
vt 12.700000 25.400000 0.000000
vt 6.350000 25.400000 0.000000
vt 12.700000 19.050000 0.000000
vt 6.350000 19.050000 0.000000
vt 12.700000 12.700000 0.000000
vt 6.350000 19.050000 0.000000
vt 6.350000 12.700000 0.000000
vt 12.700000 6.350000 0.000000
vt 6.350000 12.700000 0.000000
vt 6.350000 6.350000 0.000000
vt 6.350000 -19.050000 0.000000
vt 0.000000 -19.050000 0.000000
vt 6.350000 -25.400000 0.000000
vt 0.000000 -25.400000 0.000000
vt 12.700000 6.350000 0.000000
vt 6.350000 6.350000 0.000000
vt 12.700000 -0.000000 0.000000
vt 6.350000 -0.000000 0.000000
vt 6.350000 -12.700000 0.000000
vt 0.000000 -12.700000 0.000000
vt 6.350000 -19.050000 0.000000
vt 0.000000 -19.050000 0.000000
vt 19.050000 -0.000000 0.000000
vt 12.700000 -0.000000 0.000000
vt 19.050000 -6.350000 0.000000
vt 12.700000 -6.350000 0.000000
vt 6.350000 -6.350000 0.000000
vt 0.000000 -6.350000 0.000000
vt 6.350000 -12.700000 0.000000
vt 0.000000 -12.700000 0.000000
vt 0.000000 -19.050000 0.000000
vt -6.350000 -19.050000 0.000000
vt 0.000000 -25.400000 0.000000
vt -6.350000 -25.400000 0.000000
vt 0.000000 -12.700000 0.000000
vt -6.350000 -12.700000 0.000000
vt 0.000000 -19.050000 0.000000
vt -6.350000 -19.050000 0.000000
vt 0.000000 -6.350000 0.000000
vt -6.350000 -6.350000 0.000000
vt 0.000000 -12.700000 0.000000
vt -6.350000 -12.700000 0.000000
vt 0.000000 -0.000000 0.000000
vt -6.350000 -0.000000 0.000000
vt 0.000000 -6.350000 0.000000
vt -6.350000 -6.350000 0.000000
vt 0.000000 6.350000 0.000000
vt -6.350000 6.350000 0.000000
vt 0.000000 -0.000000 0.000000
vt -6.350000 -0.000000 0.000000
vt 0.000000 12.700000 0.000000
vt -6.350000 12.700000 0.000000
vt 0.000000 6.350000 0.000000
vt -6.350000 6.350000 0.000000
vt 6.350000 25.400000 0.000000
vt 0.000000 25.400000 0.000000
vt 6.350000 19.050000 0.000000
vt 0.000000 19.050000 0.000000
vt -6.350000 19.050000 0.000000
vt 0.000000 12.700000 0.000000
vt -6.350000 12.700000 0.000000
vt -12.700000 19.050000 0.000000
vt -19.050000 19.050000 0.000000
vt -12.700000 12.700000 0.000000
vt -19.050000 12.700000 0.000000
vt 0.000000 25.400000 0.000000
vt -6.350000 25.400000 0.000000
vt 0.000000 19.050000 0.000000
vt -6.350000 19.050000 0.000000
vt -6.350000 -19.050000 0.000000
vt -12.700000 -19.050000 0.000000
vt -6.350000 -25.400000 0.000000
vt -12.700000 -25.400000 0.000000
vt 6.350000 19.050000 0.000000
vt 0.000000 19.050000 0.000000
vt 6.350000 12.700000 0.000000
vt 0.000000 12.700000 0.000000
vt -6.350000 -12.700000 0.000000
vt -12.700000 -12.700000 0.000000
vt -6.350000 -19.050000 0.000000
vt -12.700000 -19.050000 0.000000
vt 6.350000 12.700000 0.000000
vt 0.000000 12.700000 0.000000
vt 6.350000 6.350000 0.000000
vt 0.000000 6.350000 0.000000
vt -6.350000 -6.350000 0.000000
vt -12.700000 -6.350000 0.000000
vt -6.350000 -12.700000 0.000000
vt -12.700000 -12.700000 0.000000
vt 6.350000 6.350000 0.000000
vt 0.000000 6.350000 0.000000
vt 6.350000 -0.000000 0.000000
vt 0.000000 -0.000000 0.000000
vt -6.350000 -0.000000 0.000000
vt -12.700000 -0.000000 0.000000
vt -6.350000 -6.350000 0.000000
vt -12.700000 -6.350000 0.000000
vt -12.700000 25.400000 0.000000
vt -19.050000 25.400000 0.000000
vt -12.700000 19.050000 0.000000
vt -19.050000 19.050000 0.000000
vt 25.400000 -25.400000 0.000000
vt 25.400000 25.400000 0.000000
vt 12.700000 -25.400000 0.000000
vt -25.400000 25.400000 0.000000
vt -25.400000 -25.400000 0.000000
vt 38.100000 0.000000 0.000000
vt 44.450000 0.000000 0.000000
vt 38.100000 1.905000 0.000000
vt 50.800000 1.905000 0.000000
vt 50.800000 0.000000 0.000000
vt -12.700000 -19.050000 0.000000
vt -19.050000 -19.050000 0.000000
vt -12.700000 -25.400000 0.000000
vt -19.050000 -25.400000 0.000000
vt -12.700000 -12.700000 0.000000
vt -19.050000 -12.700000 0.000000
vt -12.700000 -19.050000 0.000000
vt -19.050000 -19.050000 0.000000
vt -12.700000 -6.350000 0.000000
vt -19.050000 -6.350000 0.000000
vt -12.700000 -12.700000 0.000000
vt -19.050000 -12.700000 0.000000
vt -12.700000 -0.000000 0.000000
vt -19.050000 -0.000000 0.000000
vt -12.700000 -6.350000 0.000000
vt -19.050000 -6.350000 0.000000
vt -12.700000 6.350000 0.000000
vt -19.050000 6.350000 0.000000
vt -12.700000 -0.000000 0.000000
vt -19.050000 -0.000000 0.000000
vt -12.700000 12.700000 0.000000
vt -19.050000 12.700000 0.000000
vt -12.700000 6.350000 0.000000
vt -19.050000 6.350000 0.000000
vt -6.350000 25.400000 0.000000
vt -12.700000 25.400000 0.000000
vt -6.350000 19.050000 0.000000
vt -12.700000 19.050000 0.000000
vt -12.700000 12.700000 0.000000
vt -6.350000 12.700000 0.000000
vt -12.700000 19.050000 0.000000
vt -6.350000 19.050000 0.000000
vt -6.350000 6.350000 0.000000
vt -12.700000 12.700000 0.000000
vt -12.700000 6.350000 0.000000
vt -6.350000 -0.000000 0.000000
vt -12.700000 6.350000 0.000000
vt -12.700000 -0.000000 0.000000
vt 6.350000 -0.000000 0.000000
vt 0.000000 -0.000000 0.000000
vt 6.350000 -6.350000 0.000000
vt 0.000000 -6.350000 0.000000
vt 19.050000 -12.700000 0.000000
vt 25.400000 -12.700000 0.000000
vt 19.050000 -6.350000 0.000000
vt 25.400000 -6.350000 0.000000
vt 19.050000 -19.050000 0.000000
vt 25.400000 -19.050000 0.000000
vt 19.050000 -12.700000 0.000000
vt 25.400000 -12.700000 0.000000
vt -19.050000 -19.050000 0.000000
vt -25.400000 -19.050000 0.000000
vt -19.050000 -25.400000 0.000000
vt -25.400000 -25.400000 0.000000
vt -19.050000 19.050000 0.000000
vt -25.400000 19.050000 0.000000
vt -19.050000 12.700000 0.000000
vt -25.400000 12.700000 0.000000
vt -19.050000 6.350000 0.000000
vt -25.400000 12.700000 0.000000
vt -25.400000 6.350000 0.000000
vt -19.050000 -0.000000 0.000000
vt -25.400000 6.350000 0.000000
vt -25.400000 -0.000000 0.000000
vt -19.050000 -6.350000 0.000000
vt -25.400000 -0.000000 0.000000
vt -25.400000 -6.350000 0.000000
vt -19.050000 -12.700000 0.000000
vt -25.400000 -6.350000 0.000000
vt -25.400000 -12.700000 0.000000
vt -19.050000 -19.050000 0.000000
vt -25.400000 -12.700000 0.000000
vt -25.400000 -19.050000 0.000000
vt 19.050000 -25.400000 0.000000
vt 25.400000 -25.400000 0.000000
vt 19.050000 -19.050000 0.000000
vt 25.400000 -19.050000 0.000000
vt 38.100000 0.000000 0.000000
vt 38.100000 1.905000 0.000000
vt 31.750000 0.000000 0.000000
vt 25.400000 0.000000 0.000000
vt 19.050000 0.000000 0.000000
vt 0.000000 1.905000 0.000000
vt 12.700000 0.000000 0.000000
vt 6.350000 0.000000 0.000000
vt 0.000000 0.000000 0.000000
vt 0.000000 0.000000 0.000000
vt 6.350000 0.000000 0.000000
vt 0.000000 1.905000 0.000000
vt 12.700000 0.000000 0.000000
vt 19.050000 0.000000 0.000000
vt 25.400000 0.000000 0.000000
vt 50.800000 1.905000 0.000000
vt 31.750000 0.000000 0.000000
vt 38.100000 0.000000 0.000000
vt 44.450000 0.000000 0.000000
vt 50.800000 0.000000 0.000000
vt 0.000000 0.000000 0.000000
vt 6.350000 0.000000 0.000000
vt 0.000000 1.905000 0.000000
vt 12.700000 0.000000 0.000000
vt 19.050000 0.000000 0.000000
vt 25.400000 0.000000 0.000000
vt 50.800000 1.905000 0.000000
vt 31.750000 0.000000 0.000000
vt 38.100000 0.000000 0.000000
vt 44.450000 0.000000 0.000000
vt 50.800000 0.000000 0.000000
vt -19.050000 25.400000 0.000000
vt -25.400000 25.400000 0.000000
vt -19.050000 19.050000 0.000000
vt -25.400000 19.050000 0.000000
vn 0.000000 100.000000 0.000000
vn 0.000000 100.000000 0.000000
vn 0.000000 100.000000 0.000000
vn 0.000000 100.000000 0.000000
vn 0.000000 100.000000 0.000000
vn 0.000000 100.000000 0.000000
vn 0.000000 100.000000 0.000000
vn 0.000000 100.000000 0.000000
vn 0.000000 100.000000 0.000000
vn 0.000000 100.000000 0.000000
vn 0.000000 100.000000 0.000000
vn 0.000000 -0.000000 100.000000
vn 0.000000 -0.000000 100.000000
vn 0.000000 -0.000000 100.000000
vn 0.000000 -0.000000 100.000000
vn 0.000000 -0.000000 100.000000
vn 0.000000 -0.000000 100.000000
vn 0.000000 -0.000000 100.000000
vn 0.000000 -0.000000 100.000000
vn 0.000000 -0.000000 100.000000
vn 0.000000 -0.000000 100.000000
vn 0.000000 -0.000000 100.000000
vn 0.000000 -0.000000 100.000000
vn 0.000000 -0.000000 100.000000
vn 0.000000 -0.000000 100.000000
vn 0.000000 -0.000000 100.000000
vn 0.000000 -0.000000 100.000000
vn 0.000000 -0.000000 100.000000
vn 0.000000 -0.000000 100.000000
vn 0.000000 -0.000000 100.000000
vn 0.000000 -0.000000 100.000000
vn 0.000000 -0.000000 100.000000
vn 0.000000 -0.000000 100.000000
vn 0.000000 -0.000000 100.000000
vn 0.000000 -0.000000 100.000000
vn 0.000000 -0.000000 100.000000
vn 0.000000 -0.000000 100.000000
vn 0.000000 -0.000000 100.000000
vn 0.000000 -0.000000 100.000000
vn 0.000000 -0.000000 100.000000
vn 0.000000 -0.000000 100.000000
vn 0.000000 -0.000000 100.000000
vn 0.000000 -0.000000 100.000000
vn 0.000000 -0.000000 100.000000
vn 0.000000 -0.000000 100.000000
vn 0.000000 -0.000000 100.000000
vn 0.000000 -0.000000 100.000000
vn 0.000000 -0.000000 100.000000
vn 0.000000 -0.000000 100.000000
vn 0.000000 -0.000000 100.000000
vn 0.000000 -0.000000 100.000000
vn 0.000000 -0.000000 100.000000
vn 0.000000 -0.000000 100.000000
vn 0.000000 -0.000000 100.000000
vn 0.000000 -0.000000 100.000000
vn 0.000000 -0.000000 100.000000
vn 0.000000 -0.000000 100.000000
vn 0.000000 -0.000000 100.000000
vn 0.000000 -0.000000 100.000000
vn 0.000000 -0.000000 100.000000
vn 0.000000 -0.000000 100.000000
vn 0.000000 -0.000000 100.000000
vn 0.000000 -0.000000 100.000000
vn 0.000000 -0.000000 100.000000
vn 0.000000 -0.000000 100.000000
vn 0.000000 -0.000000 100.000000
vn 0.000000 -0.000000 100.000000
vn 0.000000 -0.000000 100.000000
vn 0.000000 -0.000000 100.000000
vn 0.000000 -0.000000 100.000000
vn 0.000000 -0.000000 100.000000
vn 0.000000 -0.000000 100.000000
vn 0.000000 -0.000000 100.000000
vn 0.000000 0.000000 -100.000000
vn 0.000000 0.000000 -100.000000
vn 0.000000 0.000000 -100.000000
vn 0.000000 0.000000 -100.000000
vn 0.000000 0.000000 -100.000000
vn 0.000000 -100.000000 0.000000
vn 0.000000 -100.000000 0.000000
vn 0.000000 -100.000000 0.000000
vn 0.000000 -100.000000 0.000000
vn 0.000000 -100.000000 0.000000
vn 0.000000 -0.000000 100.000000
vn 0.000000 -0.000000 100.000000
vn 0.000000 -0.000000 100.000000
vn 0.000000 -0.000000 100.000000
vn 0.000000 -0.000000 100.000000
vn 0.000000 -0.000000 100.000000
vn 0.000000 -0.000000 100.000000
vn 0.000000 -0.000000 100.000000
vn 0.000000 -0.000000 100.000000
vn 0.000000 -0.000000 100.000000
vn 0.000000 -0.000000 100.000000
vn 0.000000 -0.000000 100.000000
vn 0.000000 -0.000000 100.000000
vn 0.000000 -0.000000 100.000000
vn 0.000000 -0.000000 100.000000
vn 0.000000 -0.000000 100.000000
vn 0.000000 -0.000000 100.000000
vn 0.000000 -0.000000 100.000000
vn 0.000000 -100.000000 0.000000
vn 0.000000 -100.000000 0.000000
vn 0.000000 -100.000000 0.000000
vn 0.000000 -100.000000 0.000000
vn 0.000000 -100.000000 0.000000
vn 0.000000 -100.000000 0.000000
vn 0.000000 -100.000000 0.000000
vn 100.000000 -0.000000 0.000000
vn 100.000000 -0.000000 0.000000
vn 100.000000 -0.000000 0.000000
vn 100.000000 -0.000000 0.000000
vn 100.000000 -0.000000 0.000000
vn 100.000000 -0.000000 0.000000
vn 100.000000 -0.000000 0.000000
vn 100.000000 -0.000000 0.000000
vn 100.000000 -0.000000 0.000000
vn 100.000000 -0.000000 0.000000
vn 100.000000 -0.000000 0.000000
vn -100.000000 0.000000 0.000000
vn -100.000000 0.000000 0.000000
vn -100.000000 0.000000 0.000000
vn -100.000000 0.000000 0.000000
vn -100.000000 0.000000 0.000000
vn -100.000000 0.000000 0.000000
vn -100.000000 0.000000 0.000000
vn -100.000000 0.000000 0.000000
vn -100.000000 0.000000 0.000000
vn -100.000000 0.000000 0.000000
vn -100.000000 0.000000 0.000000
vn 0.000000 -0.000000 100.000000
usemtl Walnut
f 2/1/1 7/2/2 1/3/3
f 1/3/3 7/2/2 8/4/4
f 1/3/3 8/4/4 9/5/5
f 3/6/6 4/7/7 2/1/1
f 2/1/1 4/7/7 5/8/8
f 2/1/1 5/8/8 6/9/9
f 6/9/9 7/2/2 2/1/1
f 9/5/5 10/10/10 1/3/3
f 1/3/3 10/10/10 11/11/11
usemtl Oak_-_Semigloss
f 12/12/12 13/13/13 10/14/14
f 10/14/14 13/13/13 11/15/15
usemtl Walnut
f 14/16/16 15/17/17 12/18/12
f 12/18/12 15/17/17 13/19/13
usemtl Oak_-_Semigloss
f 16/20/18 17/21/19 14/22/16
f 14/22/16 17/21/19 15/23/17
f 19/24/20 20/25/21 18/26/22
f 18/26/22 20/25/21 21/27/23
usemtl Walnut
f 22/28/24 23/29/25 16/30/18
f 16/30/18 23/29/25 17/31/19
f 24/32/26 25/33/27 19/34/20
f 19/34/20 25/33/27 20/35/21
usemtl Oak_-_Semigloss
f 26/36/28 27/37/29 22/38/24
f 22/38/24 27/37/29 23/39/25
f 26/36/28 28/40/30 24/41/26
f 24/41/26 28/40/30 25/42/27
usemtl Walnut
f 10/43/14 9/44/31 12/45/12
f 12/45/12 9/44/31 29/46/32
f 20/47/21 30/48/33 21/49/23
f 21/49/23 30/48/33 31/50/34
usemtl Oak_-_Semigloss
f 12/51/12 29/52/32 14/53/16
f 14/53/16 29/52/32 32/54/35
f 25/55/27 33/56/36 20/57/21
f 20/57/21 33/56/36 30/58/33
usemtl Walnut
f 14/59/16 32/60/35 16/61/18
f 16/61/18 32/60/35 34/62/37
f 28/63/30 35/64/38 25/65/27
f 25/65/27 35/64/38 33/66/36
usemtl Oak_-_Semigloss
f 16/67/18 34/68/37 22/69/24
f 22/69/24 34/68/37 36/70/39
f 36/70/39 37/71/40 28/72/30
f 28/72/30 37/71/40 35/73/38
f 9/74/31 8/75/41 29/76/32
f 29/76/32 8/75/41 38/77/42
usemtl Walnut
f 29/76/32 38/77/42 32/78/35
f 32/78/35 38/79/42 39/80/43
usemtl Oak_-_Semigloss
f 32/78/35 39/80/43 34/81/37
f 34/81/37 39/82/43 40/83/44
f 30/84/33 41/85/45 31/86/34
f 31/86/34 41/85/45 42/87/46
usemtl Walnut
f 34/88/37 40/89/44 36/90/39
f 36/90/39 40/89/44 37/91/40
f 33/92/36 43/93/47 30/94/33
f 30/94/33 43/93/47 41/95/45
f 22/96/24 36/97/39 26/98/28
f 26/98/28 36/97/39 28/99/30
usemtl Oak_-_Semigloss
f 35/100/38 44/101/48 33/102/36
f 33/102/36 44/101/48 43/103/47
usemtl Walnut
f 41/104/45 45/105/49 42/106/46
f 42/106/46 45/105/49 46/107/50
usemtl Oak_-_Semigloss
f 43/108/47 47/109/51 41/110/45
f 41/110/45 47/109/51 45/111/49
usemtl Walnut
f 44/112/48 48/113/52 43/114/47
f 43/114/47 48/113/52 47/115/51
usemtl Oak_-_Semigloss
f 49/116/53 50/117/54 44/118/48
f 44/118/48 50/117/54 48/119/52
usemtl Walnut
f 51/120/55 52/121/56 49/122/53
f 49/122/53 52/121/56 50/123/54
usemtl Oak_-_Semigloss
f 53/124/57 54/125/58 51/126/55
f 51/126/55 54/125/58 52/127/56
usemtl Walnut
f 8/128/41 7/129/59 38/130/42
f 38/130/42 7/129/59 55/131/60
f 55/131/60 56/132/61 53/133/57
f 53/133/57 56/132/61 54/134/58
f 58/135/62 59/136/63 57/137/64
f 57/137/64 59/136/63 60/138/65
usemtl Oak_-_Semigloss
f 7/139/59 6/140/66 55/141/60
f 55/141/60 6/140/66 56/142/61
f 45/143/49 61/144/67 46/145/50
f 46/145/50 61/144/67 62/146/68
f 38/147/42 55/148/60 39/149/43
f 39/149/43 55/148/60 53/150/57
usemtl Walnut
f 47/151/51 63/152/69 45/153/49
f 45/153/49 63/152/69 61/154/67
f 39/155/43 53/156/57 40/157/44
f 40/157/44 53/156/57 51/158/55
usemtl Oak_-_Semigloss
f 48/159/52 64/160/70 47/161/51
f 47/161/51 64/160/70 63/162/69
f 40/163/44 51/164/55 37/165/40
f 37/165/40 51/164/55 49/166/53
usemtl Walnut
f 50/167/54 65/168/71 48/169/52
f 48/169/52 65/168/71 64/170/70
usemtl Oak_-_Semigloss
f 5/171/72 4/172/73 58/173/62
f 58/173/62 4/172/73 59/174/63
usemtl Walnut
f 67/175/74 2/176/75 66/177/76
f 66/177/76 2/176/75 1/178/77
f 66/177/76 1/178/77 68/179/78
f 62/180/79 69/181/80 66/182/81
f 66/182/81 69/181/80 67/183/82
f 67/183/82 69/181/80 70/184/83
f 61/185/67 71/186/84 62/187/68
f 62/187/68 71/186/84 69/188/85
usemtl Oak_-_Semigloss
f 63/189/69 72/190/86 61/191/67
f 61/191/67 72/190/86 71/192/84
usemtl Walnut
f 64/193/70 73/194/87 63/195/69
f 63/195/69 73/194/87 72/196/86
usemtl Oak_-_Semigloss
f 65/197/71 74/198/88 64/199/70
f 64/199/70 74/198/88 73/200/87
usemtl Walnut
f 75/201/89 76/202/90 65/203/71
f 65/203/71 76/202/90 74/204/88
usemtl Oak_-_Semigloss
f 57/205/64 60/206/65 75/207/89
f 75/207/89 60/206/65 76/208/90
usemtl Walnut
f 6/209/66 5/210/72 56/211/61
f 56/211/61 5/210/72 58/212/62
usemtl Oak_-_Semigloss
f 57/213/64 54/214/58 58/215/62
f 58/215/62 54/214/58 56/216/61
usemtl Walnut
f 54/214/58 57/213/64 52/217/56
f 52/217/56 57/218/64 75/219/89
usemtl Oak_-_Semigloss
f 52/217/56 75/219/89 50/220/54
f 50/220/54 75/221/89 65/222/71
usemtl Walnut
f 37/223/40 49/224/53 35/225/38
f 35/225/38 49/224/53 44/226/48
f 24/227/26 77/228/91 26/229/28
f 26/229/28 77/228/91 27/230/29
usemtl Oak_-_Semigloss
f 19/231/20 78/232/92 24/233/26
f 24/233/26 78/232/92 77/234/91
f 71/235/84 79/236/93 69/237/85
f 69/237/85 79/236/93 70/238/94
f 59/239/63 80/240/95 60/241/65
f 60/241/65 80/240/95 81/242/96
usemtl Walnut
f 60/241/65 81/242/96 76/243/90
f 76/243/90 81/244/96 82/245/97
usemtl Oak_-_Semigloss
f 76/243/90 82/245/97 74/246/88
f 74/246/88 82/247/97 83/248/98
usemtl Walnut
f 74/246/88 83/248/98 73/249/87
f 73/249/87 83/250/98 84/251/99
usemtl Oak_-_Semigloss
f 73/249/87 84/251/99 72/252/86
f 72/252/86 84/253/99 85/254/100
usemtl Walnut
f 72/252/86 85/254/100 71/255/84
f 71/255/84 85/256/100 79/257/93
f 18/258/22 86/259/101 19/260/20
f 19/260/20 86/259/101 78/261/92
f 62/262/79 66/263/81 46/264/102
f 46/264/102 66/263/81 42/265/103
f 42/265/103 66/263/81 31/266/104
f 31/266/104 66/263/81 68/267/105
f 31/266/104 68/267/105 21/268/106
f 21/268/106 68/267/105 18/269/107
f 18/269/107 68/267/105 86/270/108
f 11/271/109 13/272/110 1/273/111
f 1/273/111 13/272/110 15/274/112
f 1/273/111 15/274/112 17/275/113
f 17/275/113 23/276/114 1/273/111
f 1/273/111 23/276/114 68/277/115
f 68/277/115 23/276/114 27/278/116
f 68/277/115 27/278/116 77/279/117
f 77/279/117 78/280/118 68/277/115
f 68/277/115 78/280/118 86/281/119
f 70/282/120 79/283/121 67/284/122
f 67/284/122 79/283/121 85/285/123
f 67/284/122 85/285/123 84/286/124
f 84/286/124 83/287/125 67/284/122
f 67/284/122 83/287/125 2/288/126
f 2/288/126 83/287/125 82/289/127
f 2/288/126 82/289/127 81/290/128
f 81/290/128 80/291/129 2/288/126
f 2/288/126 80/291/129 3/292/130
f 4/293/73 3/294/131 59/295/63
f 59/295/63 3/294/131 80/296/95
# 86 vertices
# 296 texture params
# 131 normals
# 168 facets

# 1 groups
